<?xml version="1.0" encoding="UTF-8" standalone="no"?>
<!DOCTYPE svg PUBLIC "-//W3C//DTD SVG 1.0//EN" "http://www.w3.org/TR/2001/REC-SVG-20010904/DTD/svg10.dtd">
<!-- Created with Inkscape (http://www.inkscape.org/) -->
<svg
   xmlns:svg="http://www.w3.org/2000/svg"
   xmlns="http://www.w3.org/2000/svg"
   version="1.0"
   width="800"
   height="250"
   id="svg2">
  <defs
     id="defs4" />
  <g
     id="layer1">
    <rect
       width="747.51288"
       height="169.20055"
       ry="22.728432"
       x="21.718269"
       y="37.21389"
       id="rect4056"
       style="opacity:1;fill:#fdba19;fill-opacity:1;fill-rule:evenodd;stroke:none;stroke-width:6;stroke-linecap:round;stroke-linejoin:miter;stroke-miterlimit:4;stroke-dasharray:none;stroke-dashoffset:0;stroke-opacity:1" />
    <path
       d="M 590.31149,37.213889 L 560.78024,79.713888 L 560.78024,91.979511 L 588.67086,91.979511 L 588.67086,105.72952 L 601.32711,105.72952 L 601.32711,91.979511 L 617.88961,91.979511 L 629.13961,139.16702 L 642.10836,139.16702 L 653.90524,94.713891 L 665.78024,139.16702 L 678.43649,139.16702 L 692.88961,79.713888 L 680.85836,79.713888 L 671.71774,121.19827 L 661.32711,79.713888 L 647.03024,79.713888 L 636.17086,120.49514 L 627.18649,79.713888 L 601.32711,79.713888 L 601.32711,37.213889 L 590.31149,37.213889 z M 588.67086,57.135763 L 588.67086,79.713888 L 572.96774,79.713888 L 588.67086,57.135763 z M 698.59274,79.713888 L 698.59274,88.932638 L 710.62399,88.932638 L 710.62399,79.713888 L 698.59274,79.713888 z M 722.10836,79.713888 L 722.10836,139.16702 L 733.28024,139.16702 L 733.28024,100.41702 L 757.18649,139.16702 L 769.21774,139.16702 L 769.21774,79.713888 L 758.12399,79.713888 L 758.12399,119.40139 L 733.74899,79.713888 L 722.10836,79.713888 z M 698.59274,96.510761 L 698.59274,139.16702 L 710.62399,139.16702 L 710.62399,96.510761 L 698.59274,96.510761 z"
       id="text4047"
       style="font-size:38.10960388px;font-style:normal;font-variant:normal;font-weight:bold;font-stretch:normal;text-align:start;line-height:100%;writing-mode:lr-tb;text-anchor:start;fill:#fa050c;fill-opacity:1;stroke:none;stroke-width:1px;stroke-linecap:butt;stroke-linejoin:miter;stroke-opacity:1;font-family:Arial;-inkscape-font-specification:Arial Bold" />
    <path
       d="M 443.51462,37.184439 L 550.78024,206.40319 L 574.45211,206.40319 L 467.18649,37.184439 L 443.51462,37.184439 z M 481.40524,37.184439 L 588.59274,206.40319 L 612.26461,206.40319 L 504.99899,37.184439 L 481.40524,37.184439 z"
       id="rect4084"
       style="opacity:1;fill:#fa050c;fill-opacity:1;fill-rule:evenodd;stroke:none;stroke-width:6;stroke-linecap:round;stroke-linejoin:miter;stroke-miterlimit:4;stroke-dasharray:none;stroke-dashoffset:0;stroke-opacity:1" />
    <path
       d="M 147.96773,19.762564 C 91.79286,19.762539 45.936461,65.540763 45.936486,121.71569 C 45.936511,177.89057 91.79281,223.66885 147.96773,223.66882 C 202.83301,223.6688 247.77677,179.99494 249.84274,125.62194 L 125.93648,125.62194 L 125.93648,143.27819 L 227.03024,143.27819 C 217.59629,178.11189 185.84291,203.66882 147.96773,203.66882 C 102.61411,203.66882 65.936485,167.06934 65.936485,121.71569 C 65.936485,76.362013 102.61408,39.762564 147.96773,39.762564 C 176.25141,39.762539 201.13723,53.985814 215.85836,75.700063 L 238.90524,75.700063 C 222.04634,42.557289 187.59661,19.762539 147.96773,19.762564 z M 408.74899,68.200063 C 374.39199,68.200038 346.32709,96.264911 346.32712,130.62194 C 346.32714,164.97894 374.39197,193.04384 408.74899,193.04382 C 443.10604,193.04379 471.17089,164.97897 471.17086,130.62194 L 394.92087,130.62194 L 394.92087,147.18444 L 450.54587,147.18444 C 443.98149,163.83189 427.78477,175.54382 408.74899,175.54382 C 383.86062,175.54382 363.82712,155.51037 363.82712,130.62194 C 363.82712,105.73352 383.86057,85.700063 408.74899,85.700063 C 422.85054,85.700038 435.36914,92.160891 443.59274,102.26257 L 464.29587,102.26257 C 453.92307,82.097838 432.89414,68.200038 408.74899,68.200063 z M 264.60837,71.715688 L 264.60837,190.07507 L 282.10837,190.07507 L 282.10837,144.13757 L 295.23337,144.13757 C 321.45879,144.13757 338.17462,126.54872 338.28024,107.96569 C 338.38587,89.382663 321.72304,71.715688 295.23337,71.715688 L 282.10837,71.715688 L 272.49899,71.715688 L 264.60837,71.715688 z M 282.10837,89.215688 L 295.23337,89.215688 C 314.76262,89.215688 320.83067,99.015241 320.78024,107.88757 C 320.72982,116.75989 314.40264,126.63757 295.23337,126.63757 L 282.10837,126.63757 L 282.10837,89.215688 z"
       id="path4097"
       style="opacity:1;fill:#000000;fill-opacity:1;fill-rule:evenodd;stroke:none;stroke-width:8;stroke-linecap:round;stroke-linejoin:miter;stroke-miterlimit:4;stroke-dasharray:none;stroke-dashoffset:0;stroke-opacity:1" />
  </g>
</svg>
